<svg xmlns="http://www.w3.org/2000/svg" width="19.634" height="19.634" viewBox="0 0 19.634 19.634">
  <g id="iconfinder_Instagram_glyph_svg_5335781" transform="translate(0 -0.162)">
    <path id="Path_578" data-name="Path 578" d="M9.817.162c-2.666,0-3,.011-4.048.059A7.206,7.206,0,0,0,3.386.677,4.812,4.812,0,0,0,1.648,1.809,4.812,4.812,0,0,0,.515,3.548,7.205,7.205,0,0,0,.059,5.931C.011,6.978,0,7.312,0,9.978s.011,3,.059,4.047a7.205,7.205,0,0,0,.456,2.383,4.812,4.812,0,0,0,1.132,1.739A4.812,4.812,0,0,0,3.386,19.28a7.206,7.206,0,0,0,2.383.456c1.047.048,1.381.059,4.048.059s3-.011,4.047-.059a7.206,7.206,0,0,0,2.383-.456,5.02,5.02,0,0,0,2.871-2.871,7.206,7.206,0,0,0,.456-2.383c.048-1.047.059-1.381.059-4.047s-.011-3-.059-4.048a7.206,7.206,0,0,0-.456-2.383,4.812,4.812,0,0,0-1.132-1.739A4.812,4.812,0,0,0,16.247.677,7.205,7.205,0,0,0,13.864.221C12.817.173,12.483.162,9.817.162Zm0,1.769c2.621,0,2.932.01,3.967.057a5.433,5.433,0,0,1,1.823.338,3.042,3.042,0,0,1,1.129.734,3.041,3.041,0,0,1,.734,1.129,5.431,5.431,0,0,1,.338,1.823c.047,1.035.057,1.346.057,3.967s-.01,2.932-.057,3.967a5.431,5.431,0,0,1-.338,1.823,3.251,3.251,0,0,1-1.863,1.863,5.431,5.431,0,0,1-1.823.338c-1.035.047-1.345.057-3.967.057s-2.932-.01-3.967-.057a5.431,5.431,0,0,1-1.823-.338A3.042,3.042,0,0,1,2.9,16.9a3.041,3.041,0,0,1-.734-1.129,5.432,5.432,0,0,1-.338-1.823c-.047-1.035-.057-1.346-.057-3.967s.01-2.932.057-3.967a5.432,5.432,0,0,1,.338-1.823A3.041,3.041,0,0,1,2.9,3.06a3.042,3.042,0,0,1,1.129-.734A5.433,5.433,0,0,1,5.85,1.988C6.885,1.94,7.2,1.93,9.817,1.93Z" transform="translate(0 0)" fill="#fff"/>
    <path id="Path_579" data-name="Path 579" d="M129.581,133.015a3.272,3.272,0,1,1,3.272-3.272A3.272,3.272,0,0,1,129.581,133.015Zm0-8.313a5.041,5.041,0,1,0,5.041,5.041A5.041,5.041,0,0,0,129.581,124.7Z" transform="translate(-119.764 -119.764)" fill="#fff"/>
    <path id="Path_580" data-name="Path 580" d="M364.288,89.967a1.178,1.178,0,1,1-1.178-1.178A1.178,1.178,0,0,1,364.288,89.967Z" transform="translate(-348.053 -85.228)" fill="#fff"/>
  </g>
</svg>
