<svg xmlns="http://www.w3.org/2000/svg" width="15.857" height="15.787" viewBox="0 0 15.857 15.787">
  <path id="Path_584" data-name="Path 584" d="M3.379,14.94V4.5H.152V14.94ZM3.379.8A1.587,1.587,0,0,0,1.726-.846,1.592,1.592,0,0,0,.053.8,1.583,1.583,0,0,0,1.687,2.445h.019A1.593,1.593,0,0,0,3.379.8ZM8.644,14.94V8.992a2.421,2.421,0,0,1,.117-.864,1.938,1.938,0,0,1,1.816-1.3,1.925,1.925,0,0,1,2.085,2.159V14.94H15.91V8.833c0-3.272-1.747-4.794-4.076-4.794A3.526,3.526,0,0,0,8.62,5.833l.023-1.4H5.4c.047,1,0,10.5,0,10.5Z" transform="translate(-0.053 0.846)" fill="#fff" fill-rule="evenodd"/>
</svg>
