<svg xmlns="http://www.w3.org/2000/svg" width="15.832" height="11.874" viewBox="0 0 15.832 11.874">
  <path id="iconfinder_00-ELASTOFONT-STORE-READY_mail_2703074" d="M15.664,4H2.168A1.207,1.207,0,0,0,1,5.241v9.393a1.207,1.207,0,0,0,1.168,1.241h13.5a1.207,1.207,0,0,0,1.168-1.241V5.241A1.207,1.207,0,0,0,15.664,4ZM10.675,9.937l5.167-3.729v7.458ZM15.664,4.99a.151.151,0,0,1,.1.053L8.916,9.987,2.066,5.043a.151.151,0,0,1,.1-.053ZM1.99,13.666V6.208L7.157,9.937Zm.178,1.218a.152.152,0,0,1-.1-.053L8,10.547,8.627,11a.462.462,0,0,0,.048.024.472.472,0,0,0,.045.023.492.492,0,0,0,.2.046h0a.492.492,0,0,0,.2-.046.472.472,0,0,0,.045-.023A.462.462,0,0,0,9.205,11l.625-.451,5.936,4.284a.152.152,0,0,1-.1.053Z" transform="translate(-1 -4)" fill="#fff"/>
</svg>
