<svg xmlns="http://www.w3.org/2000/svg" width="15.061" height="15.061" viewBox="0 0 15.061 15.061">
  <g id="iconfinder_cell-4-0_234293" transform="translate(-0.429 -0.5)">
    <path id="Path_586" data-name="Path 586" d="M5.254,14.392a1.217,1.217,0,0,0,0-1.72l-1.29-1.29a1.217,1.217,0,0,0-1.72,0l-.708.708a1.822,1.822,0,0,0-.23,2.3,28.288,28.288,0,0,0,7.907,7.907,1.824,1.824,0,0,0,2.3-.23l.708-.708a1.217,1.217,0,0,0,0-1.72l-1.29-1.29a1.216,1.216,0,0,0-1.72,0l-.43.43a28.84,28.84,0,0,1-3.951-3.951Z" transform="translate(0 -7.607)" fill="none" stroke="#fff" stroke-linecap="round" stroke-linejoin="round" stroke-miterlimit="10" stroke-width="1"/>
    <path id="Path_587" data-name="Path 587" d="M30,1a6.994,6.994,0,0,1,6.995,6.995" transform="translate(-22.004)" fill="none" stroke="#fff" stroke-linecap="round" stroke-linejoin="round" stroke-miterlimit="10" stroke-width="1"/>
    <path id="Path_588" data-name="Path 588" d="M30,11.087a4.562,4.562,0,0,1,4.562,4.562" transform="translate(-22.004 -7.654)" fill="none" stroke="#fff" stroke-linecap="round" stroke-linejoin="round" stroke-miterlimit="10" stroke-width="1"/>
    <path id="Path_589" data-name="Path 589" d="M30,21.174A2.129,2.129,0,0,1,32.129,23.3" transform="translate(-22.004 -15.308)" fill="none" stroke="#fff" stroke-linecap="round" stroke-linejoin="round" stroke-miterlimit="10" stroke-width="1"/>
  </g>
</svg>
