<svg id="twitter" xmlns="http://www.w3.org/2000/svg" width="18.017" height="15.443" viewBox="0 0 18.017 15.443">
  <path id="Path_583" data-name="Path 583" d="M16.018,1.427A3.676,3.676,0,0,0,13.32.154a3.735,3.735,0,0,0-3.7,3.853,4.162,4.162,0,0,0,.1.893A10.419,10.419,0,0,1,2.1.69a4.089,4.089,0,0,0-.5,1.977,4.068,4.068,0,0,0,1.644,3.3A3.533,3.533,0,0,1,1.57,5.458c0,.016,0,.033,0,.05A3.927,3.927,0,0,0,4.535,9.4a3.48,3.48,0,0,1-1.669.056,3.756,3.756,0,0,0,3.453,2.751,7.135,7.135,0,0,1-4.591,1.672,7.043,7.043,0,0,1-.882-.057A9.975,9.975,0,0,0,6.513,15.6c6.8,0,10.517-5.915,10.517-11.047q0-.253-.011-.5a7.6,7.6,0,0,0,1.844-1.983,7.054,7.054,0,0,1-2.123.581A3.79,3.79,0,0,0,18.366.522,7.1,7.1,0,0,1,16.018,1.427Z" transform="translate(-0.846 -0.154)" fill="#fff" fill-rule="evenodd"/>
</svg>
