<svg xmlns="http://www.w3.org/2000/svg" width="13" height="14.444" viewBox="0 0 13 14.444">
  <g id="iconfinder_010_065_calendar_date_schedule_complete_today_1282950" transform="translate(-3 -2)">
    <path id="Path_502" data-name="Path 502" d="M14.026,12.021,13,11,10.33,13.675,8.942,12.287,7.921,13.308l2.409,2.418Z" transform="translate(-1.367 -2.5)" fill="#545454"/>
    <path id="Path_503" data-name="Path 503" d="M14.623,3.444H13.111V2.722A.722.722,0,0,0,12.389,2h0a.722.722,0,0,0-.722.722v.722H7.333V2.722A.722.722,0,0,0,6.611,2h0a.722.722,0,0,0-.722.722v.722H4.377A1.377,1.377,0,0,0,3,4.821V15.068a1.377,1.377,0,0,0,1.377,1.377H14.623A1.377,1.377,0,0,0,16,15.068V4.821A1.377,1.377,0,0,0,14.623,3.444ZM14.556,15H4.444V6.333H14.556Z" transform="translate(0)" fill="#545454"/>
  </g>
</svg>
