<svg xmlns="http://www.w3.org/2000/svg" width="14.949" height="14.949" viewBox="0 0 14.949 14.949">
  <path id="iconfinder_trash_2077934_1_" data-name="iconfinder_trash_2077934 (1)" d="M15.27,3.718h-3.4V2.7a1.682,1.682,0,0,0-1.7-1.7h-3.4a1.682,1.682,0,0,0-1.7,1.7V3.718H1.68A.642.642,0,0,0,1,4.4a.642.642,0,0,0,.68.68h.747l.612,10.261a.67.67,0,0,0,.68.612h9.513a.67.67,0,0,0,.68-.612l.612-10.261h.747a.642.642,0,0,0,.68-.68A.642.642,0,0,0,15.27,3.718Zm-4.757,3.4v5.436a.68.68,0,0,1-1.359,0V7.116a.68.68,0,0,1,1.359,0Zm-2.718,0v5.436a.642.642,0,0,1-.68.68.642.642,0,0,1-.68-.68V7.116a.642.642,0,0,1,.68-.68A.642.642,0,0,1,7.8,7.116ZM6.436,2.7a.321.321,0,0,1,.34-.34h3.4a.321.321,0,0,1,.34.34V3.718H6.436Z" transform="translate(-1 -1)"/>
</svg>
