<svg xmlns="http://www.w3.org/2000/svg" width="14.876" height="14.876" viewBox="0 0 14.876 14.876">
  <path id="Path_515" data-name="Path 515" d="M7.338,0a7.438,7.438,0,1,0,7.537,7.337A7.439,7.439,0,0,0,7.338,0Zm.824,2.479a.855.855,0,0,1,.979.94A1.248,1.248,0,0,1,7.785,4.626c-.716,0-1.057-.36-1.037-.956A1.281,1.281,0,0,1,8.163,2.479ZM6.225,12.086c-.517,0-.9-.313-.534-1.692l.593-2.446c.1-.392.12-.549,0-.549a3.934,3.934,0,0,0-1.222.537L4.8,7.514A6.875,6.875,0,0,1,8.125,5.848c.517,0,.6.611.345,1.551L7.791,9.971c-.12.455-.069.611.051.611A2.676,2.676,0,0,0,9,10l.293.392A5.4,5.4,0,0,1,6.225,12.086Z" transform="translate(0 0)"/>
</svg>
