<svg xmlns="http://www.w3.org/2000/svg" xmlns:xlink="http://www.w3.org/1999/xlink" width="29.999" height="30" viewBox="0 0 29.999 30">
  <defs>
    <radialGradient id="radial-gradient" cx="0.018" cy="0.908" r="1.446" gradientTransform="matrix(0.052, -0.999, 0.849, 0.044, 0.074, 0.127)" gradientUnits="objectBoundingBox">
      <stop offset="0" stop-color="#fed576"/>
      <stop offset="0.263" stop-color="#f47133"/>
      <stop offset="0.609" stop-color="#bc3081"/>
      <stop offset="1" stop-color="#4c63d2"/>
    </radialGradient>
  </defs>
  <g id="iconfinder_instagram_1632517" transform="translate(0 0.018)">
    <g id="Background_1_" transform="translate(0 -0.018)">
      <path id="Path_472" data-name="Path 472" d="M0,14.6v.809A15.183,15.183,0,0,0,13.892,29.982h2.285A15.134,15.134,0,0,0,30,15.4v-.8A15.109,15.109,0,0,0,15.785,0,15.167,15.167,0,0,0,0,14.6Z" transform="translate(0 0.018)" fill="url(#radial-gradient)"/>
    </g>
    <g id="Symbol" transform="translate(6.129 5.878)">
      <g id="Group_282" data-name="Group 282">
        <path id="Path_473" data-name="Path 473" d="M113.541,102.241c2.391,0,2.672.006,3.621.053a4.782,4.782,0,0,1,1.658.311,2.758,2.758,0,0,1,1.025.68,2.885,2.885,0,0,1,.674,1.043,5.291,5.291,0,0,1,.311,1.693c.047.961.053,1.248.053,3.68s-.006,2.719-.053,3.68a4.862,4.862,0,0,1-.311,1.693,2.81,2.81,0,0,1-.674,1.043,2.758,2.758,0,0,1-1.025.68,4.676,4.676,0,0,1-1.658.311c-.943.047-1.23.053-3.621.053s-2.672-.006-3.621-.053a4.783,4.783,0,0,1-1.658-.311,2.758,2.758,0,0,1-1.025-.68,2.884,2.884,0,0,1-.674-1.043,5.29,5.29,0,0,1-.311-1.693c-.047-.961-.053-1.248-.053-3.68s.006-2.719.053-3.68a4.863,4.863,0,0,1,.311-1.693,2.81,2.81,0,0,1,.674-1.043,2.758,2.758,0,0,1,1.025-.68,4.676,4.676,0,0,1,1.658-.311c.943-.041,1.23-.053,3.621-.053m0-1.641c-2.432,0-2.736.012-3.685.059a6.627,6.627,0,0,0-2.174.422,4.288,4.288,0,0,0-1.582,1.055,4.466,4.466,0,0,0-1.031,1.617,6.661,6.661,0,0,0-.416,2.209c-.047.967-.053,1.277-.053,3.75s.012,2.783.053,3.75a7.01,7.01,0,0,0,.416,2.209,4.515,4.515,0,0,0,1.031,1.617,4.384,4.384,0,0,0,1.582,1.055,6.335,6.335,0,0,0,2.174.422c.955.047,1.26.059,3.685.059s2.736-.012,3.685-.059a6.627,6.627,0,0,0,2.174-.422,4.287,4.287,0,0,0,1.582-1.055,4.465,4.465,0,0,0,1.031-1.617,6.662,6.662,0,0,0,.416-2.209c.047-.967.053-1.277.053-3.75s-.012-2.783-.053-3.75a7.01,7.01,0,0,0-.416-2.209,4.515,4.515,0,0,0-1.031-1.617,4.384,4.384,0,0,0-1.582-1.055,6.335,6.335,0,0,0-2.174-.422c-.949-.047-1.26-.059-3.685-.059Z" transform="translate(-104.6 -100.6)" fill="#fff"/>
        <path id="Path_474" data-name="Path 474" d="M183.394,176.2a4.676,4.676,0,1,0,4.594,4.676A4.63,4.63,0,0,0,183.394,176.2Zm0,7.711a3.036,3.036,0,1,1,2.982-3.035A3.006,3.006,0,0,1,183.394,183.911Z" transform="translate(-174.453 -171.77)" fill="#fff"/>
        <ellipse id="Ellipse_26" data-name="Ellipse 26" cx="1.072" cy="1.09" rx="1.072" ry="1.09" transform="translate(12.644 3.152)" fill="#fff"/>
      </g>
    </g>
  </g>
</svg>
