<svg xmlns="http://www.w3.org/2000/svg" width="30" height="30" viewBox="0 0 30 30">
  <g id="Group_276" data-name="Group 276" transform="translate(-95)">
    <circle id="Ellipse_23" data-name="Ellipse 23" cx="15" cy="15" r="15" transform="translate(95)" fill="#0077b5"/>
    <g id="iconfinder_LinkedIn_571119" transform="translate(104 9)">
      <rect id="Rectangle_220" data-name="Rectangle 220" width="2.683" height="8.07" transform="translate(0.159 3.891)" fill="#f1f1f1"/>
      <path id="Path_464" data-name="Path 464" d="M146.288,149.711a1.4,1.4,0,1,0-.035,2.789h.018a1.4,1.4,0,1,0,.017-2.789Z" transform="translate(-144.77 -149.711)" fill="#f1f1f1"/>
      <path id="Path_465" data-name="Path 465" d="M226.758,215.486a2.664,2.664,0,0,0-2.418,1.333v.026h-.017l.017-.026v-1.144h-2.683c.036.757,0,8.07,0,8.07h2.683v-4.507a1.834,1.834,0,0,1,.089-.654,1.469,1.469,0,0,1,1.377-.981c.971,0,1.359.74,1.359,1.825v4.318h2.683v-4.628C229.848,216.639,228.524,215.486,226.758,215.486Z" transform="translate(-217.331 -211.785)" fill="#f1f1f1"/>
    </g>
  </g>
</svg>
