<svg xmlns="http://www.w3.org/2000/svg" width="15" height="11.705" viewBox="0 0 15 11.705">
  <g id="icons" transform="translate(-24.8 -33.4)">
    <g id="Group_383" data-name="Group 383" transform="translate(24.8 33.4)">
      <path id="Path_504" data-name="Path 504" d="M38.842,33.4H25.777a.981.981,0,0,0-.977.977v9.751a.981.981,0,0,0,.977.977H38.822a.981.981,0,0,0,.977-.977V34.377A.953.953,0,0,0,38.842,33.4Zm-.421,1.379v6.647L36.1,39.109a.81.81,0,0,0-1.13,0l-3.065,3.065-1.552-1.552a.81.81,0,0,0-1.13,0l-3.046,3.046V34.779Z" transform="translate(-24.8 -33.4)" fill="#545454"/>
      <circle id="Ellipse_28" data-name="Ellipse 28" cx="1.341" cy="1.341" r="1.341" transform="translate(3.621 2.701)" fill="#545454"/>
    </g>
  </g>
</svg>
