<svg id="iconfinder_145_-_Valid_1136959" xmlns="http://www.w3.org/2000/svg" width="17.841" height="17.841" viewBox="0 0 17.841 17.841">
  <g id="Layer_x0020_1" transform="translate(2.124 2.124)">
    <g id="_306342704">
      <path id="_306342824" d="M14.393,7.6A6.8,6.8,0,1,0,12.4,12.4,6.775,6.775,0,0,0,14.393,7.6Z" transform="translate(-0.8 -0.8)" fill="#28aa41" fill-rule="evenodd"/>
      <path id="_306342752" d="M1.6,6.325a.227.227,0,0,0,0,.32l2.9,2.9h0a.227.227,0,0,0,.32,0L11.163,3.2h0a.227.227,0,0,0,0-.32l-.905-.905h0a.227.227,0,0,0-.32,0L4.656,7.257,2.821,5.422l0,0a.227.227,0,0,0-.32,0h0l-.888.892L1.6,6.325Z" transform="translate(0.414 1.036)" fill="#fff" fill-rule="evenodd"/>
    </g>
  </g>
  <rect id="Rectangle_269" data-name="Rectangle 269" width="17.841" height="17.841" fill="none"/>
</svg>
