<svg xmlns="http://www.w3.org/2000/svg" width="30" height="30" viewBox="0 0 30 30">
  <g id="Group_275" data-name="Group 275" transform="translate(-45)">
    <circle id="Ellipse_22" data-name="Ellipse 22" cx="15" cy="15" r="15" transform="translate(45)" fill="#1da1f2"/>
    <path id="Path_463" data-name="Path 463" d="M4.77,60.312a8.794,8.794,0,0,0,8.854-8.854c0-.135,0-.269-.009-.4a6.332,6.332,0,0,0,1.553-1.611,6.213,6.213,0,0,1-1.787.49,3.123,3.123,0,0,0,1.368-1.721,6.237,6.237,0,0,1-1.976.755,3.115,3.115,0,0,0-5.3,2.838,8.839,8.839,0,0,1-6.414-3.251,3.127,3.127,0,0,0,.963,4.154,3.089,3.089,0,0,1-1.412-.39v.039a3.122,3.122,0,0,0,2.5,3.051,3.108,3.108,0,0,1-1.405.053,3.122,3.122,0,0,0,2.907,2.161A6.246,6.246,0,0,1,.741,58.959,6.331,6.331,0,0,1,0,58.914a8.811,8.811,0,0,0,4.77,1.4" transform="translate(52 -38.987)" fill="#f1f1f1"/>
  </g>
</svg>
