<svg xmlns="http://www.w3.org/2000/svg" width="43.02" height="35.85" viewBox="0 0 43.02 35.85">
  <g id="Group_488" data-name="Group 488" transform="translate(-296.396 -186.369)">
    <g id="iconfinder_add_clip_movie_video_film_5649345_1_" data-name="iconfinder_add_clip_movie_video_film_5649345 (1)" transform="translate(296.396 186.369)">
      <path id="Path_548" data-name="Path 548" d="M19.718,27.1A12.459,12.459,0,0,1,34.058,14.69V2.9a.9.9,0,0,0-.9-.9H.9a.9.9,0,0,0-.9.9V25.3a3.589,3.589,0,0,0,3.585,3.585H19.86a12.573,12.573,0,0,1-.143-1.793ZM32.265,9.17H30.278L32.265,7.2ZM30.613,3.793,25.18,9.17H21.305l5.421-5.378Zm-28.82,0H3.739L1.793,5.739ZM3.431,9.17,8.809,3.793h3.865L7.253,9.17Zm8.912,0,5.421-5.378h3.873L16.215,9.17Z" transform="translate(0 -2)" fill="#545454"/>
      <path id="Path_549" data-name="Path 549" d="M22.755,10A10.755,10.755,0,1,0,33.51,20.755,10.755,10.755,0,0,0,22.755,10Zm4.481,11.651H23.651v3.585a.9.9,0,0,1-1.793,0V21.651H18.274a.9.9,0,1,1,0-1.793h3.585V16.274a.9.9,0,0,1,1.793,0v3.585h3.585a.9.9,0,0,1,0,1.793Z" transform="translate(9.51 4.34)" fill="#545454"/>
    </g>
  </g>
</svg>
