<svg xmlns="http://www.w3.org/2000/svg" width="50" height="41.667" viewBox="0 0 50 41.667">
  <g id="iconfinder_add_image_picture_photo_photography_5649098" transform="translate(0 -2)">
    <circle id="Ellipse_33" data-name="Ellipse 33" cx="4.068" cy="4.068" r="4.068" transform="translate(8.554 6.416)" fill="#545454"/>
    <path id="Path_546" data-name="Path 546" d="M22.917,31.167A14.586,14.586,0,0,1,31.8,17.741l-5.021-5.02a1.041,1.041,0,0,0-1.473,0L14.062,23.965l-3.951-3.951a1.041,1.041,0,0,0-1.473,0L2.083,26.569V6.167A2.085,2.085,0,0,1,4.167,4.083H39.583a2.085,2.085,0,0,1,2.083,2.083V17.2a14.437,14.437,0,0,1,2.083.81V6.167A4.171,4.171,0,0,0,39.583,2H4.167A4.171,4.171,0,0,0,0,6.167V29.083A4.171,4.171,0,0,0,4.167,33.25H23.082a14.614,14.614,0,0,1-.166-2.083Z" fill="#545454"/>
    <path id="Path_547" data-name="Path 547" d="M24.5,10A12.5,12.5,0,1,0,37,22.5,12.5,12.5,0,0,0,24.5,10Zm5.208,13.542H25.542v4.167a1.042,1.042,0,1,1-2.083,0V23.542H19.292a1.042,1.042,0,0,1,0-2.083h4.167V17.292a1.042,1.042,0,1,1,2.083,0v4.167h4.167a1.042,1.042,0,1,1,0,2.083Z" transform="translate(13 8.667)" fill="#545454"/>
  </g>
</svg>
