<svg xmlns="http://www.w3.org/2000/svg" width="45.002" height="37.502" viewBox="0 0 45.002 37.502">
  <g id="iconfinder_add_image_picture_photo_photography_5649098" transform="translate(0 -2)">
    <ellipse id="Ellipse_33" data-name="Ellipse 33" cx="3.5" cy="4" rx="3.5" ry="4" transform="translate(7.617 5.514)" fill="#545454"/>
    <path id="Path_546" data-name="Path 546" d="M20.626,28.251A13.128,13.128,0,0,1,28.62,16.168L24.1,11.65a.937.937,0,0,0-1.326,0L12.657,21.769,9.1,18.213a.937.937,0,0,0-1.326,0l-5.9,5.9V5.75A1.877,1.877,0,0,1,3.75,3.875H35.627A1.877,1.877,0,0,1,37.5,5.75v9.926a12.994,12.994,0,0,1,1.875.729V5.75A3.754,3.754,0,0,0,35.627,2H3.75A3.754,3.754,0,0,0,0,5.75V26.376a3.754,3.754,0,0,0,3.75,3.75H20.775a13.153,13.153,0,0,1-.149-1.875Z" fill="#545454"/>
    <path id="Path_547" data-name="Path 547" d="M23.25,10A11.25,11.25,0,1,0,34.5,21.25,11.25,11.25,0,0,0,23.25,10Zm4.688,12.188h-3.75v3.75a.938.938,0,1,1-1.875,0v-3.75h-3.75a.938.938,0,0,1,0-1.875h3.75v-3.75a.938.938,0,0,1,1.875,0v3.75h3.75a.938.938,0,1,1,0,1.875Z" transform="translate(10.501 7.001)" fill="#545454"/>
  </g>
</svg>
