<svg xmlns="http://www.w3.org/2000/svg" width="24.995" height="25" viewBox="0 0 24.995 25">
  <g id="iconfinder_UI_Glyph_04_-15_1119168" transform="translate(-5.044 -5.16)">
    <path id="Path_556" data-name="Path 556" d="M29.467,26.848,23.89,21.272a1.931,1.931,0,0,0-1.373-.571h0l-.03,0a9.706,9.706,0,1,0-1.9,1.9c0,.012,0,.023,0,.035a1.933,1.933,0,0,0,.571,1.373l5.578,5.579a1.94,1.94,0,0,0,1.373.571h0a1.937,1.937,0,0,0,1.362-3.312Zm-9.374-6.634a7.57,7.57,0,1,1,2.219-5.355A7.523,7.523,0,0,1,20.093,20.214Z" fill="#fff"/>
    <path id="Path_557" data-name="Path 557" d="M22.174,33.727a4.693,4.693,0,0,1,.147-3.065.665.665,0,1,0-1.233-.5A6.025,6.025,0,0,0,20.9,34.1a5.908,5.908,0,0,0,.944,1.889.665.665,0,1,0,1.065-.8A4.577,4.577,0,0,1,22.174,33.727Z" transform="translate(-11.284 -17.772)" fill="#fff"/>
  </g>
</svg>
