<svg xmlns="http://www.w3.org/2000/svg" width="21.509" height="21" viewBox="0 0 21.509 21">
  <g id="iconfinder__warning_1946552" transform="translate(-1.745 -1.5)">
    <g id="Group_332" data-name="Group 332">
      <g id="Group_331" data-name="Group 331">
        <path id="Path_489" data-name="Path 489" d="M20.9,22.5H4.1a2.305,2.305,0,0,1-2-1.1A2.36,2.36,0,0,1,2,19.1L10.4,2.8a2.346,2.346,0,0,1,4.2,0L23,19.1a2.36,2.36,0,0,1-.1,2.3A2.305,2.305,0,0,1,20.9,22.5ZM12.5,2.4a1.34,1.34,0,0,0-1.3.8L2.8,19.5a1.7,1.7,0,0,0,0,1.4,1.457,1.457,0,0,0,1.3.7H20.9a1.709,1.709,0,0,0,1.3-.7,1.422,1.422,0,0,0,.1-1.4L13.8,3.2A1.34,1.34,0,0,0,12.5,2.4Z" fill="#e55637"/>
      </g>
    </g>
    <g id="Group_335" data-name="Group 335">
      <g id="Group_333" data-name="Group 333">
        <rect id="Rectangle_232" data-name="Rectangle 232" width="1" height="6.7" transform="translate(12 9)" fill="#e55637"/>
        <path id="Path_490" data-name="Path 490" d="M13,16.2H12a.536.536,0,0,1-.5-.5V9a.472.472,0,0,1,.5-.5h1a.458.458,0,0,1,.4.5v6.7C13.4,15.9,13.3,16.2,13,16.2Zm-.5-1h.1V9.5h-.1Z" fill="#e55637"/>
      </g>
      <g id="Group_334" data-name="Group 334">
        <rect id="Rectangle_233" data-name="Rectangle 233" width="1" height="0.9" transform="translate(12 18)" fill="#e55637"/>
        <rect id="Rectangle_234" data-name="Rectangle 234" width="1.9" height="1.8" transform="translate(11.6 17.6)" fill="#e55637"/>
      </g>
    </g>
  </g>
</svg>
